# xmcd CD database file
# Copyright (C) 1997 Ti Kan
# 
# Track frame offsets:
#     150
#     11550
#     20825
#     28775
#     40075
#     48200
#     58525
#     67200
#     77775
#     89775
#     103950
#     119025
#     127800
#     138450
#     151200
#     159200
#     169950
#     178775
#     189575
#     202350
#     213250
#     222275
# 
# Disc length: 3109 seconds
# 
# Revision: 1
# Processed by: cddbd v1.4b41PL1 Copyright (c) Steve Scherf et al.
# Submitted via: DiscPlay 4.0.4
# 
DISCID=4a0c2316
DTITLE=Roger Miller - 22 Golden Greats
DYEAR=1900
DGENRE=
TTITLE0=King Of The Road
TTITLE1=Chug-A-Lug
TTITLE2=Dang Me
TTITLE3=Husbands and Wives
TTITLE4=In The Summertime
TTITLE5=Engine Engine #9
TTITLE6=Can't Roller Skate In A Buffalo Herd
TTITLE7=Release Me
TTITLE8=Walkin' In The Sunshine
TTITLE9=My Elusive Dreams
TTITLE10=Me and Bobby McGee
TTITLE11=England Swings
TTITLE12=Kansas City Star
TTITLE13=The Last Word In Lonesome Is Me
TTITLE14=Do-Wack-A-Do
TTITLE15=When Two Worlds Collide
TTITLE16=Billy Bayou
TTITLE17=Burning Bridges
TTITLE18=Heartaches By The Number
TTITLE19=Don't We All Have The Right To Be Wrong
TTITLE20=My Uncle Used To Love Me (But She Died)
TTITLE21=Everything's Coming Up Roses
EXTD=
EXTT0=
EXTT1=
EXTT2=
EXTT3=
EXTT4=
EXTT5=
EXTT6=
EXTT7=
EXTT8=
EXTT9=
EXTT10=
EXTT11=
EXTT12=
EXTT13=
EXTT14=
EXTT15=
EXTT16=
EXTT17=
EXTT18=
EXTT19=
EXTT20=
EXTT21=
PLAYORDER=
